<svg width="125" height="20" viewBox="0 0 125 20" fill="none" xmlns="http://www.w3.org/2000/svg">
<g clip-path="url(#clip0_45_6)">
<path d="M1.77624 3.21241C2.21039 2.41648 2.82 1.78772 3.59913 1.3339C4.38599 0.859063 5.28349 0.62793 6.27647 0.62793C7.28402 0.62793 8.19014 0.858269 8.97836 1.3339C9.75747 1.78772 10.3671 2.41649 10.8012 3.21241C11.2365 4.0104 11.4495 4.90156 11.4495 5.87469V14.4444C11.4495 14.805 11.5352 15.1204 11.7016 15.4018C11.8752 15.6956 12.0975 15.9236 12.3706 16.0936C12.6567 16.2617 12.9554 16.3431 13.2746 16.3431C13.5952 16.3431 13.8835 16.2611 14.1499 16.0962C14.4214 15.9281 14.6334 15.704 14.7904 15.4162L14.7944 15.4089L14.7986 15.4018C14.9649 15.1204 15.0506 14.805 15.0506 14.4444V1.40569V0.922591H15.5337H17.891H18.374V1.40569V14.1251C18.374 15.0982 18.161 15.9894 17.7257 16.7874C17.2934 17.5801 16.6951 18.2153 15.9353 18.6857L15.9317 18.6879L15.9281 18.69C15.1555 19.15 14.2654 19.3719 13.2746 19.3719C12.2836 19.3719 11.3875 19.1499 10.6009 18.6926L10.5951 18.6892L10.5894 18.6857C9.82958 18.2153 9.2313 17.5801 8.79897 16.7874C8.36369 15.9894 8.15064 15.0982 8.15064 14.1251V5.55547C8.15064 5.19485 8.06491 4.87948 7.89864 4.59804C7.72725 4.30806 7.4993 4.08011 7.20936 3.90876C6.92497 3.74074 6.61719 3.65673 6.27647 3.65673C5.93742 3.65673 5.63103 3.73989 5.34787 3.90624C5.07704 4.07481 4.85611 4.30053 4.68314 4.59084C4.53093 4.87279 4.45139 5.191 4.45139 5.55547V18.5941V19.0772H3.9683H1.61102H1.12793V18.5941V5.87469C1.12793 4.90156 1.34097 4.0104 1.77624 3.21241ZM1.77624 3.21241L2.19263 3.43954" stroke="url(#paint0_linear_45_6)" stroke-width="0.966183"/>
</g>
<path d="M33.8747 10.9659V15.5H32.3882V7.86364H33.8151V9.10653H33.9095C34.0852 8.70218 34.3603 8.37737 34.7348 8.1321C35.1126 7.88684 35.5883 7.7642 36.1616 7.7642C36.682 7.7642 37.1377 7.87358 37.5288 8.09233C37.9199 8.30777 38.2232 8.62926 38.4386 9.05682C38.6541 9.48437 38.7618 10.013 38.7618 10.6428V15.5H37.2753V10.8217C37.2753 10.2682 37.1311 9.8357 36.8428 9.52415C36.5544 9.20928 36.1583 9.05185 35.6545 9.05185C35.3098 9.05185 35.0033 9.12642 34.7348 9.27557C34.4696 9.42472 34.2592 9.64347 34.1034 9.93182C33.9509 10.2169 33.8747 10.5616 33.8747 10.9659ZM40.7554 15.5V7.86364H42.2419V15.5H40.7554ZM41.5061 6.68537C41.2476 6.68537 41.0255 6.59919 40.8399 6.42685C40.6576 6.25118 40.5665 6.04238 40.5665 5.80043C40.5665 5.55516 40.6576 5.34635 40.8399 5.17401C41.0255 4.99834 41.2476 4.91051 41.5061 4.91051C41.7646 4.91051 41.985 4.99834 42.1673 5.17401C42.3529 5.34635 42.4457 5.55516 42.4457 5.80043C42.4457 6.04238 42.3529 6.25118 42.1673 6.42685C41.985 6.59919 41.7646 6.68537 41.5061 6.68537ZM50.7744 7.86364L48.0052 15.5H46.4143L43.6402 7.86364H45.236L47.17 13.7401H47.2495L49.1785 7.86364H50.7744ZM55.1283 15.6541C54.4124 15.6541 53.7876 15.4901 53.254 15.1619C52.7204 14.8338 52.3061 14.3748 52.0111 13.7848C51.7161 13.1948 51.5686 12.5054 51.5686 11.7166C51.5686 10.9245 51.7161 10.2318 52.0111 9.63849C52.3061 9.04522 52.7204 8.58452 53.254 8.25639C53.7876 7.92827 54.4124 7.7642 55.1283 7.7642C55.8442 7.7642 56.4689 7.92827 57.0026 8.25639C57.5362 8.58452 57.9505 9.04522 58.2455 9.63849C58.5404 10.2318 58.6879 10.9245 58.6879 11.7166C58.6879 12.5054 58.5404 13.1948 58.2455 13.7848C57.9505 14.3748 57.5362 14.8338 57.0026 15.1619C56.4689 15.4901 55.8442 15.6541 55.1283 15.6541ZM55.1332 14.4062C55.5972 14.4062 55.9817 14.2836 56.2866 14.0384C56.5916 13.7931 56.8169 13.4666 56.9628 13.0589C57.1119 12.6513 57.1865 12.2022 57.1865 11.7116C57.1865 11.2244 57.1119 10.777 56.9628 10.3693C56.8169 9.95833 56.5916 9.62855 56.2866 9.37997C55.9817 9.13139 55.5972 9.0071 55.1332 9.0071C54.6659 9.0071 54.2781 9.13139 53.9699 9.37997C53.665 9.62855 53.4379 9.95833 53.2888 10.3693C53.1429 10.777 53.07 11.2244 53.07 11.7116C53.07 12.2022 53.1429 12.6513 53.2888 13.0589C53.4379 13.4666 53.665 13.7931 53.9699 14.0384C54.2781 14.2836 54.6659 14.4062 55.1332 14.4062ZM61.3266 15.5945C61.0548 15.5945 60.8211 15.4983 60.6256 15.3061C60.4301 15.1106 60.3323 14.8752 60.3323 14.6001C60.3323 14.3284 60.4301 14.0964 60.6256 13.9041C60.8211 13.7086 61.0548 13.6108 61.3266 13.6108C61.5984 13.6108 61.832 13.7086 62.0276 13.9041C62.2231 14.0964 62.3209 14.3284 62.3209 14.6001C62.3209 14.7824 62.2745 14.9498 62.1817 15.1023C62.0922 15.2514 61.9729 15.3707 61.8238 15.4602C61.6746 15.5497 61.5089 15.5945 61.3266 15.5945ZM70.8447 7.86364L68.0755 15.5H66.4846L63.7105 7.86364H65.3064L67.2403 13.7401H67.3198L69.2488 7.86364H70.8447ZM72.2417 15.5V7.86364H73.7282V15.5H72.2417ZM72.9924 6.68537C72.7339 6.68537 72.5118 6.59919 72.3262 6.42685C72.1439 6.25118 72.0528 6.04238 72.0528 5.80043C72.0528 5.55516 72.1439 5.34635 72.3262 5.17401C72.5118 4.99834 72.7339 4.91051 72.9924 4.91051C73.251 4.91051 73.4714 4.99834 73.6537 5.17401C73.8393 5.34635 73.9321 5.55516 73.9321 5.80043C73.9321 6.04238 73.8393 6.25118 73.6537 6.42685C73.4714 6.59919 73.251 6.68537 72.9924 6.68537ZM78.5867 15.6491C77.9702 15.6491 77.42 15.4917 76.9361 15.1768C76.4556 14.8587 76.0777 14.4062 75.8026 13.8196C75.5308 13.2296 75.395 12.522 75.395 11.6967C75.395 10.8714 75.5325 10.1655 75.8076 9.57884C76.086 8.99219 76.4672 8.54309 76.9511 8.23153C77.435 7.91998 77.9835 7.7642 78.5967 7.7642C79.0706 7.7642 79.4518 7.84375 79.7401 8.00284C80.0318 8.15862 80.2572 8.34091 80.4163 8.54972C80.5787 8.75852 80.7046 8.94247 80.7941 9.10156H80.8836V5.31818H82.3701V15.5H80.9184V14.3118H80.7941C80.7046 14.4742 80.5754 14.6598 80.4063 14.8686C80.2406 15.0774 80.0119 15.2597 79.7202 15.4155C79.4286 15.5713 79.0507 15.6491 78.5867 15.6491ZM78.9148 14.3814C79.3424 14.3814 79.7037 14.2687 79.9986 14.0433C80.2969 13.8146 80.5223 13.4981 80.6748 13.0938C80.8306 12.6894 80.9084 12.2187 80.9084 11.6818C80.9084 11.1515 80.8322 10.6875 80.6798 10.2898C80.5273 9.89205 80.3036 9.58215 80.0086 9.36009C79.7136 9.13802 79.349 9.02699 78.9148 9.02699C78.4674 9.02699 78.0945 9.14299 77.7962 9.375C77.4979 9.60701 77.2726 9.92353 77.1201 10.3246C76.9709 10.7256 76.8964 11.178 76.8964 11.6818C76.8964 12.1922 76.9726 12.6513 77.1251 13.0589C77.2775 13.4666 77.5029 13.7898 77.8012 14.0284C78.1028 14.2637 78.474 14.3814 78.9148 14.3814ZM87.7829 15.6541C87.0305 15.6541 86.3826 15.4934 85.839 15.1719C85.2988 14.8471 84.8812 14.3913 84.5862 13.8047C84.2945 13.2147 84.1487 12.5237 84.1487 11.7315C84.1487 10.9493 84.2945 10.2599 84.5862 9.66335C84.8812 9.06676 85.2921 8.60109 85.8191 8.26633C86.3494 7.93158 86.9692 7.7642 87.6785 7.7642C88.1094 7.7642 88.527 7.83546 88.9314 7.97798C89.3357 8.1205 89.6986 8.34422 90.0201 8.64915C90.3416 8.95407 90.5952 9.35014 90.7808 9.83736C90.9664 10.3213 91.0592 10.9096 91.0592 11.6023V12.1293H84.9889V11.0156H89.6025C89.6025 10.6245 89.523 10.2782 89.3639 9.97656C89.2048 9.67164 88.9811 9.43134 88.6927 9.25568C88.4077 9.08002 88.0729 8.99219 87.6885 8.99219C87.2708 8.99219 86.9063 9.09493 86.5947 9.30043C86.2865 9.5026 86.0478 9.76776 85.8788 10.0959C85.7131 10.4207 85.6302 10.7737 85.6302 11.1548V12.0249C85.6302 12.5353 85.7197 12.9695 85.8987 13.3274C86.081 13.6854 86.3345 13.9588 86.6593 14.1477C86.9841 14.3333 87.3636 14.4261 87.7978 14.4261C88.0796 14.4261 88.3364 14.3864 88.5684 14.3068C88.8004 14.224 89.001 14.1013 89.17 13.9389C89.339 13.7765 89.4683 13.576 89.5578 13.3374L90.9647 13.5909C90.852 14.0052 90.6499 14.3681 90.3582 14.6797C90.0698 14.9879 89.7069 15.2282 89.2694 15.4006C88.8352 15.5696 88.3397 15.6541 87.7829 15.6541ZM95.9251 15.6541C95.2092 15.6541 94.5845 15.4901 94.0508 15.1619C93.5172 14.8338 93.1029 14.3748 92.808 13.7848C92.513 13.1948 92.3655 12.5054 92.3655 11.7166C92.3655 10.9245 92.513 10.2318 92.808 9.63849C93.1029 9.04522 93.5172 8.58452 94.0508 8.25639C94.5845 7.92827 95.2092 7.7642 95.9251 7.7642C96.641 7.7642 97.2658 7.92827 97.7994 8.25639C98.333 8.58452 98.7473 9.04522 99.0423 9.63849C99.3373 10.2318 99.4848 10.9245 99.4848 11.7166C99.4848 12.5054 99.3373 13.1948 99.0423 13.7848C98.7473 14.3748 98.333 14.8338 97.7994 15.1619C97.2658 15.4901 96.641 15.6541 95.9251 15.6541ZM95.9301 14.4062C96.3941 14.4062 96.7786 14.2836 97.0835 14.0384C97.3884 13.7931 97.6138 13.4666 97.7597 13.0589C97.9088 12.6513 97.9834 12.2022 97.9834 11.7116C97.9834 11.2244 97.9088 10.777 97.7597 10.3693C97.6138 9.95833 97.3884 9.62855 97.0835 9.37997C96.7786 9.13139 96.3941 9.0071 95.9301 9.0071C95.4628 9.0071 95.075 9.13139 94.7668 9.37997C94.4618 9.62855 94.2348 9.95833 94.0856 10.3693C93.9398 10.777 93.8669 11.2244 93.8669 11.7116C93.8669 12.2022 93.9398 12.6513 94.0856 13.0589C94.2348 13.4666 94.4618 13.7931 94.7668 14.0384C95.075 14.2836 95.4628 14.4062 95.9301 14.4062Z" fill="#F4F4F5"/>
<defs>
<linearGradient id="paint0_linear_45_6" x1="19.4674" y1="0.177949" x2="0.539629" y2="20.1289" gradientUnits="userSpaceOnUse">
<stop stop-color="#5EEAD4"/>
<stop offset="1" stop-color="#0D9488"/>
</linearGradient>
<clipPath id="clip0_45_6">
<rect width="18.8889" height="20" fill="white" transform="translate(0.5)"/>
</clipPath>
</defs>
</svg>
